HIERARCHY
ROOT Hips
{
	OFFSET -0.001795 -0.223333 0.028219
	CHANNELS 6 Xposition Yposition Zposition Zrotation Yrotation Xrotation 
	JOINT LeftUpLeg
	{
		OFFSET 0.069520 -0.091406 -0.006815
		CHANNELS 3 Zrotation Yrotation Xrotation
		JOINT LeftLeg
		{
			OFFSET 0.034277 -0.375199 -0.004496
			CHANNELS 3 Zrotation Yrotation Xrotation
			JOINT LeftFoot
			{
				OFFSET -0.013596 -0.397961 -0.043693
				CHANNELS 3 Zrotation Yrotation Xrotation
				JOINT LeftToe
				{
					OFFSET 0.026358 -0.055791 0.119288
					CHANNELS 3 Zrotation Yrotation Xrotation
					End Site
					{
						OFFSET 0.000000 0.000000 0.000000
					}
				}
			}
		}
	}
	JOINT RightUpLeg
	{
		OFFSET -0.067670 -0.090522 -0.004320
		CHANNELS 3 Zrotation Yrotation Xrotation
		JOINT RightLeg
		{
			OFFSET -0.038290 -0.382569 -0.008850
			CHANNELS 3 Zrotation Yrotation Xrotation
			JOINT RightFoot
			{
				OFFSET 0.015774 -0.398415 -0.042312
				CHANNELS 3 Zrotation Yrotation Xrotation
				JOINT RightToe
				{
					OFFSET -0.025372 -0.048144 0.123348
					CHANNELS 3 Zrotation Yrotation Xrotation
					End Site
					{
						OFFSET 0.000000 0.000000 0.000000
					}
				}
			}
		}
	}
	JOINT Spine
	{
		OFFSET -0.002533 0.108963 -0.026696
		CHANNELS 3 Zrotation Yrotation Xrotation
		JOINT Spine1
		{
			OFFSET 0.005487 0.135180 0.001092
			CHANNELS 3 Zrotation Yrotation Xrotation
			JOINT Spine2
			{
				OFFSET 0.001457 0.052922 0.025425
				CHANNELS 3 Zrotation Yrotation Xrotation
				JOINT Neck
				{
					OFFSET -0.002778 0.213870 -0.042857
					CHANNELS 3 Zrotation Yrotation Xrotation
					JOINT Head
					{
						OFFSET 0.005152 0.064970 0.051349
						CHANNELS 3 Zrotation Yrotation Xrotation
						End Site
						{
							OFFSET 0.000000 0.000000 0.000000
						}
					}
				}
				JOINT LeftShoulder
				{
					OFFSET 0.078845 0.121749 -0.034090
					CHANNELS 3 Zrotation Yrotation Xrotation
					JOINT LeftArm
					{
						OFFSET 0.090977 0.030469 -0.008868
						CHANNELS 3 Zrotation Yrotation Xrotation
						JOINT LeftForeArm
						{
							OFFSET 0.259612 -0.012772 -0.027456
							CHANNELS 3 Zrotation Yrotation Xrotation
							JOINT LeftHand
							{
								OFFSET 0.249234 0.008986 -0.001171
								CHANNELS 3 Zrotation Yrotation Xrotation
								End Site
								{
									OFFSET 0.000000 0.000000 0.000000
								}
							}
						}
					}
				}
				JOINT RightShoulder
				{
					OFFSET -0.081759 0.118833 -0.038615
					CHANNELS 3 Zrotation Yrotation Xrotation
					JOINT RightArm
					{
						OFFSET -0.096012 0.032551 -0.009143
						CHANNELS 3 Zrotation Yrotation Xrotation
						JOINT RightForeArm
						{
							OFFSET -0.253742 -0.013329 -0.021401
							CHANNELS 3 Zrotation Yrotation Xrotation
							JOINT RightHand
							{
								OFFSET -0.255298 0.007772 -0.005559
								CHANNELS 3 Zrotation Yrotation Xrotation
								End Site
								{
									OFFSET 0.000000 0.000000 0.000000
								}
							}
						}
					}
				}
			}
		}
	}
}
MOTION
Frames: 6
Frame Time: 0.050000
0.000000 0.946635 0.000000 -0.604348 1.294322 4.612049 2.523680 -0.056366 0.148657 -0.042732 0.177219 -5.180918 -0.276302 2.490922 6.963450 0.000000 0.000000 0.000000 -0.855697 0.224400 -2.090423 -2.340203 0.059315 -3.148489 2.215246 1.755139 7.023743 0.000000 0.000000 0.000000 4.421080 0.319968 -5.478262 -2.289480 1.109213 -4.196294 -4.607618 2.839412 9.695721 6.175829 -3.157270 -10.511245 0.000000 0.000000 0.000000 -12.717651 -2.498996 -0.632116 -58.758016 -3.172279 -6.047017 -10.174771 -21.984574 2.667309 0.000000 0.000000 0.000000 11.342044 -6.675789 -3.459960 67.914053 1.308617 -5.865784 10.295252 26.640444 3.562530 0.000000 0.000000 0.000000 
0.000635 0.945900 0.001228 -0.745197 1.017903 5.184853 2.956324 -0.053548 0.429046 -0.706560 0.256917 -6.651031 0.059346 3.097256 7.018857 0.000000 0.000000 0.000000 -1.062736 0.275639 -2.598378 -1.885955 0.024682 -3.104456 2.335413 1.944116 7.122701 0.000000 0.000000 0.000000 5.517398 0.398527 -6.199343 -2.830490 1.335401 -3.252254 -5.692833 3.475209 8.665300 5.998227 -2.949260 -10.503396 0.000000 0.000000 0.000000 -13.111523 -2.497454 -0.826844 -57.346958 -2.931195 -5.879151 -11.104399 -22.112186 2.810311 0.000000 0.000000 0.000000 11.053467 -8.101115 -4.038993 69.429904 -0.306660 -6.695472 10.442767 26.684375 3.631130 0.000000 0.000000 0.000000 
0.001033 0.945697 0.002025 -0.248407 1.222498 5.111458 2.867679 -0.051032 0.425555 -1.344318 0.274665 -6.114410 -0.253973 2.411352 6.684988 0.000000 0.000000 0.000000 -1.177382 0.245861 -2.260950 -2.224747 0.036235 -3.370474 1.936853 1.096841 7.113432 0.000000 0.000000 0.000000 5.074708 0.404170 -6.413329 -2.660126 1.264652 -4.089641 -6.065768 2.957321 9.498453 4.978595 -2.337920 -10.170301 0.000000 0.000000 0.000000 -12.689776 -2.543678 -0.663153 -57.760621 -2.898481 -6.043548 -10.958979 -21.265402 2.704129 0.000000 0.000000 0.000000 12.485472 -7.429748 -3.906393 67.742521 -0.226716 -6.732403 9.899609 25.941749 3.379790 0.000000 0.000000 0.000000 
0.001188 0.946140 0.002965 -0.243756 1.425141 5.313161 3.066265 -0.061518 0.406781 -1.494022 0.285745 -6.356270 -0.568104 1.911266 6.842589 0.000000 0.000000 0.000000 -1.167046 0.246068 -2.256636 -2.306717 0.004877 -4.002205 2.121285 1.367374 7.435282 0.000000 0.000000 0.000000 5.275942 0.443476 -6.874767 -2.877285 1.359229 -3.522248 -6.299401 2.776445 8.669478 4.736207 -2.300310 -9.226075 0.000000 0.000000 0.000000 -12.154766 -2.161030 -0.790342 -58.304197 -2.804311 -6.086438 -10.457759 -20.854891 2.550170 0.000000 0.000000 0.000000 11.406366 -7.984319 -4.069840 68.469348 -0.911792 -7.041372 10.410560 25.267166 3.365188 0.000000 0.000000 0.000000 
0.001193 0.946547 0.003742 -0.043961 1.613351 5.277425 2.855357 -0.030418 0.790116 -1.356791 0.290021 -6.932177 -0.683643 1.889075 7.269931 0.000000 0.000000 0.000000 -1.275980 0.203679 -1.769712 -2.471586 -0.022705 -4.646081 1.801554 0.668577 7.489838 0.000000 0.000000 0.000000 5.015898 0.425019 -6.766364 -2.652697 1.263477 -3.536559 -6.545995 2.924310 8.385308 4.430384 -2.067668 -9.136600 0.000000 0.000000 0.000000 -12.027252 -2.467856 -0.692986 -57.897959 -3.139419 -5.854507 -10.759147 -19.946286 2.472377 0.000000 0.000000 0.000000 11.550695 -8.384858 -4.243384 67.941640 -1.312196 -7.161321 10.573857 24.519988 3.292758 0.000000 0.000000 0.000000 
0.001104 0.946781 0.004339 -0.036572 1.633794 5.383654 2.795338 -0.031238 0.757974 -1.160417 0.282531 -6.984547 -0.514582 2.179235 7.222855 0.000000 0.000000 0.000000 -1.129928 0.192913 -1.676270 -2.568459 -0.030643 -4.870438 1.855380 0.668445 7.748449 0.000000 0.000000 0.000000 5.096598 0.443448 -6.984464 -2.704873 1.285307 -3.369253 -6.553010 2.849196 8.226911 4.476106 -2.148351 -8.844086 0.000000 0.000000 0.000000 -12.167152 -2.616753 -0.638065 -57.403313 -3.450620 -5.618917 -10.678240 -19.350555 2.384479 0.000000 0.000000 0.000000 11.448812 -8.201392 -4.154466 67.902803 -1.390811 -7.192946 10.138933 24.050758 3.121517 0.000000 0.000000 0.000000 
